HIERARCHY
ROOT Hips
{
	OFFSET 0.000000 0.000000 0.000000
	CHANNELS 6 Xposition Yposition Zposition Zrotation Yrotation Xrotation 
	JOINT LHipJoint
	{
		OFFSET 0.000000 0.000000 0.000000
		CHANNELS 3 Zrotation Yrotation Xrotation
		JOINT LeftUpLeg
		{
			OFFSET 1.363060 -1.794630 0.839290
			CHANNELS 3 Zrotation Yrotation Xrotation
			JOINT LeftLeg
			{
				OFFSET 2.448110 -6.726130 0.000000
				CHANNELS 3 Zrotation Yrotation Xrotation
				JOINT LeftFoot
				{
					OFFSET 2.562200 -7.039590 0.000000
					CHANNELS 3 Zrotation Yrotation Xrotation
					JOINT LeftToeBase
					{
						OFFSET 0.157640 -0.433110 2.322550
						CHANNELS 3 Zrotation Yrotation Xrotation
						End Site
						{
							OFFSET 0.000000 0.000000 0.000000
						}
					}
				}
			}
		}
	}
	JOINT RHipJoint
	{
		OFFSET 0.000000 0.000000 0.000000
		CHANNELS 3 Zrotation Yrotation Xrotation
		JOINT RightUpLeg
		{
			OFFSET -1.305520 -1.794630 0.839290
			CHANNELS 3 Zrotation Yrotation Xrotation
			JOINT RightLeg
			{
				OFFSET -2.542530 -6.985550 0.000000
				CHANNELS 3 Zrotation Yrotation Xrotation
				JOINT RightFoot
				{
					OFFSET -2.568260 -7.056230 0.000000
					CHANNELS 3 Zrotation Yrotation Xrotation
					JOINT RightToeBase
					{
						OFFSET -0.164730 -0.452590 2.363150
						CHANNELS 3 Zrotation Yrotation Xrotation
						End Site
						{
							OFFSET 0.000000 0.000000 0.000000
						}
					}
				}
			}
		}
	}
	JOINT LowerBack
	{
		OFFSET 0.000000 0.000000 0.000000
		CHANNELS 3 Zrotation Yrotation Xrotation
		JOINT Spine
		{
			OFFSET 0.028270 2.035590 -0.193380
			CHANNELS 3 Zrotation Yrotation Xrotation
			JOINT Spine1
			{
				OFFSET 0.056720 2.048850 -0.042750
				CHANNELS 3 Zrotation Yrotation Xrotation
				JOINT Neck
				{
					OFFSET 0.000000 0.000000 0.000000
					CHANNELS 3 Zrotation Yrotation Xrotation
					JOINT Neck1
					{
						OFFSET -0.054170 1.746240 0.172020
						CHANNELS 3 Zrotation Yrotation Xrotation
						JOINT Head
						{
							OFFSET 0.104070 1.761360 -0.123970
							CHANNELS 3 Zrotation Yrotation Xrotation
							End Site
							{
								OFFSET 0.000000 0.000000 0.000000
							}
						}
					}
				}
				JOINT LeftShoulder
				{
					OFFSET 0.000000 0.000000 0.000000
					CHANNELS 3 Zrotation Yrotation Xrotation
					JOINT LeftArm
					{
						OFFSET 3.362410 1.200890 -0.311210
						CHANNELS 3 Zrotation Yrotation Xrotation
						JOINT LeftForeArm
						{
							OFFSET 4.983000 -0.000000 -0.000000
							CHANNELS 3 Zrotation Yrotation Xrotation
							JOINT LeftHand
							{
								OFFSET 3.483560 -0.000000 -0.000000
								CHANNELS 3 Zrotation Yrotation Xrotation
								JOINT LeftFingerBase
								{
									OFFSET 0.000000 0.000000 0.000000
									CHANNELS 3 Zrotation Yrotation Xrotation
									JOINT LeftHandIndex1
									{
										OFFSET 0.715260 -0.000000 -0.000000
										CHANNELS 3 Zrotation Yrotation Xrotation
										End Site
										{
											OFFSET 0.000000 0.000000 0.000000
										}
									}
								}
								JOINT LThumb
								{
									OFFSET 0.000000 0.000000 0.000000
									CHANNELS 3 Zrotation Yrotation Xrotation
									End Site
									{
										OFFSET 0.000000 0.000000 0.000000
									}
								}
							}
						}
					}
				}
				JOINT RightShoulder
				{
					OFFSET 0.000000 0.000000 0.000000
					CHANNELS 3 Zrotation Yrotation Xrotation
					JOINT RightArm
					{
						OFFSET -3.136600 1.374050 -0.404650
						CHANNELS 3 Zrotation Yrotation Xrotation
						JOINT RightForeArm
						{
							OFFSET -5.241900 -0.000000 -0.000000
							CHANNELS 3 Zrotation Yrotation Xrotation
							JOINT RightHand
							{
								OFFSET -3.444170 -0.000000 -0.000000
								CHANNELS 3 Zrotation Yrotation Xrotation
								JOINT RightFingerBase
								{
									OFFSET 0.000000 0.000000 0.000000
									CHANNELS 3 Zrotation Yrotation Xrotation
									JOINT RightHandIndex1
									{
										OFFSET -0.622530 -0.000000 -0.000000
										CHANNELS 3 Zrotation Yrotation Xrotation
										End Site
										{
											OFFSET 0.000000 0.000000 0.000000
										}
									}
								}
								JOINT RThumb
								{
									OFFSET 0.000000 0.000000 0.000000
									CHANNELS 3 Zrotation Yrotation Xrotation
									End Site
									{
										OFFSET 0.000000 0.000000 0.000000
									}
								}
							}
						}
					}
				}
			}
		}
	}
}
MOTION
Frames: 7
Frame Time: 0.008333
4.920896 16.225976 14.872190 -169.166598 -25.788983 -152.564843 27.877954 11.366013 2.846134 2.490873 -46.843441 -34.702878 6.234633 15.431710 54.619644 7.280327 -13.624424 -70.991147 5.776700 -14.208400 -44.078900 -35.075616 -16.606729 16.273233 9.347808 42.956957 -58.957489 -7.615619 -7.748283 15.946412 -9.978951 -32.272707 -56.074233 -5.160500 -13.562300 41.511500 -11.607964 -4.892769 -30.969015 -17.503963 -8.896304 17.417123 9.503184 -7.264997 12.662392 -14.078603 -7.872472 -8.473813 27.514387 -21.048224 46.329060 1.959300 -5.372900 8.032900 27.983846 -2.875850 -0.151430 -63.030686 13.931342 24.632912 52.088078 -48.467228 -16.987776 0.141840 1.549532 -12.055159 26.033621 -13.340583 -7.113500 -7.125000 0.000000 0.000000 -1.354500 13.316000 1.006400 -8.737837 4.449657 3.845520 98.015455 -33.532298 -18.792390 -60.972760 56.462410 -26.302474 1.059917 -3.003942 -15.118186 -12.249050 -56.394538 10.126100 7.125000 0.000000 0.000000 66.550500 -75.961000 -52.714300 
5.037775 16.126054 14.776292 -170.565007 -26.100748 -151.887642 27.607121 11.409877 3.072757 2.602178 -46.898905 -35.308950 6.373146 15.416152 54.418057 7.449302 -12.807811 -71.010788 6.503800 -14.899400 -46.971500 -34.324855 -16.806661 16.473109 8.293916 41.723712 -60.305050 -7.203267 -8.378642 18.251231 -9.825307 -33.373038 -53.012600 -4.739900 -13.084700 39.686400 -11.630608 -4.799412 -31.008831 -18.200486 -8.634959 18.385430 9.601626 -7.202693 12.310013 -13.984000 -8.135564 -9.501453 27.463362 -21.078937 46.407976 1.912200 -5.338800 8.150600 28.140845 -2.494243 -0.108459 -62.895723 13.151937 24.642279 51.407876 -48.211960 -16.572850 0.131932 1.542515 -11.859994 25.677647 -13.212007 -6.942800 -7.125000 0.000000 0.000000 -1.572300 13.516200 1.161700 -8.749643 4.290565 3.849912 98.819759 -33.425035 -18.517763 -59.202339 56.114620 -25.204014 0.956827 -3.051679 -13.464453 -11.859889 -56.098876 9.753900 7.125000 0.000000 0.000000 65.616100 -75.714100 -51.597000 
5.153313 16.022970 14.682118 -172.054165 -26.354552 -150.784388 27.201941 11.438171 3.114704 3.058741 -46.914397 -36.258572 6.200806 15.373552 54.321281 7.250230 -13.711177 -70.903894 6.443100 -14.844400 -46.735000 -33.866200 -16.975978 16.326109 7.638219 40.574218 -61.297419 -6.859634 -8.970390 20.333936 -9.819388 -34.077721 -50.123591 -4.447600 -12.733400 38.378400 -10.906394 -4.318993 -29.915298 -20.499593 -8.819341 15.643672 10.259906 -7.308703 13.010626 -13.957166 -7.901198 -8.080656 27.338114 -20.965888 46.082008 1.924100 -5.388900 7.898000 28.327776 -2.773959 0.113809 -62.961328 13.337871 25.064199 50.917250 -47.736009 -16.186087 0.124663 1.527010 -11.533362 25.250727 -13.627034 -6.988700 -7.125000 0.000000 0.000000 -1.878300 13.143400 1.402800 -8.411415 4.447310 4.313338 99.633602 -34.127092 -18.194551 -57.843840 55.566170 -24.284696 0.865017 -3.111539 -12.071483 -11.771337 -55.870513 9.629300 7.125000 0.000000 0.000000 64.729100 -75.589400 -50.660300 
5.271725 15.916629 14.580759 -173.297287 -26.629775 -150.028379 26.860830 11.464814 3.271022 3.667763 -46.867877 -37.109437 5.973387 15.295920 54.296630 7.023721 -14.946506 -70.847389 6.291800 -14.705300 -46.141900 -33.264006 -16.987829 16.177669 7.435298 39.387194 -62.082539 -6.573681 -9.714410 22.806323 -9.971163 -34.311647 -47.092643 -4.218300 -12.445300 37.326100 -10.501742 -4.190516 -29.105473 -21.354924 -9.011802 14.199671 10.439372 -7.331439 13.139114 -14.320957 -7.876374 -7.664711 27.199228 -20.963011 46.304585 1.954000 -5.421300 7.853800 28.341853 -2.878720 0.239132 -63.167506 13.406486 25.293022 50.298850 -47.226969 -15.738935 0.128676 1.474147 -11.102872 25.082293 -14.348695 -7.228900 -7.125000 0.000000 0.000000 -2.032800 12.446500 1.547900 -8.232270 4.492960 4.587924 100.161874 -34.573263 -17.653596 -56.591815 55.054632 -23.424281 0.803445 -3.149543 -11.013417 -11.381869 -55.260218 9.230400 7.125000 0.000000 0.000000 62.679700 -75.220800 -48.430300 
5.390233 15.804828 14.479209 -174.700178 -26.862858 -149.375563 26.443601 11.434093 3.512564 4.096644 -46.791622 -37.856739 5.855514 15.244840 54.346181 6.892180 -15.729416 -70.797549 6.339000 -14.749000 -46.327500 -32.145363 -16.934026 16.215200 6.998601 37.474787 -63.568975 -6.604593 -10.926435 26.335753 -10.313451 -32.458043 -45.143994 -3.424500 -11.352400 33.477900 -10.548059 -4.244022 -28.981640 -21.540241 -8.896551 14.665904 10.387041 -7.250639 12.744315 -14.586547 -8.168870 -8.589310 26.777295 -21.037712 47.072868 1.894500 -5.437600 8.055200 28.346071 -2.662011 0.268091 -63.274537 13.127944 25.385395 49.651443 -46.849992 -15.344482 0.150726 1.419897 -10.996768 25.333542 -14.807073 -7.484500 -7.125000 0.000000 0.000000 -1.904800 11.978200 1.468900 -8.225855 4.435907 4.615849 100.592134 -34.607002 -16.931386 -55.406577 54.676227 -22.672260 0.762023 -3.169109 -10.034483 -10.533379 -54.837213 8.511200 7.125000 0.000000 0.000000 61.713600 -74.743700 -47.067100 
5.506920 15.691302 14.382065 -176.135373 -27.054094 -148.730031 25.956888 11.379843 3.810552 4.558372 -46.654473 -38.693155 5.823576 15.223783 54.526706 6.796110 -16.244185 -70.667001 6.409100 -14.813400 -46.602300 -30.533144 -16.763852 16.303206 6.604339 34.841601 -65.518667 -7.364812 -12.550815 30.423002 -9.989650 -26.530124 -48.019511 -2.106800 -9.085000 26.061700 -11.098887 -4.625954 -29.369390 -20.716979 -8.763033 16.424724 10.028749 -7.170288 12.052634 -14.991909 -8.579468 -10.222421 26.448844 -21.096674 47.875976 1.861100 -5.404100 8.371500 28.251132 -2.325660 0.196065 -63.528300 12.821432 25.011878 49.066733 -46.560309 -14.988725 0.182691 1.370881 -11.042598 25.613425 -15.104418 -7.679500 -7.125000 0.000000 0.000000 -1.755800 11.676400 1.364800 -8.369943 4.332732 4.418074 100.580830 -34.254810 -15.629969 -54.215533 54.254771 -21.914874 0.721478 -3.201793 -9.091012 -9.726003 -55.026008 7.896100 7.125000 0.000000 0.000000 62.801700 -74.510600 -47.776700 
5.620254 15.577680 14.292106 -177.634539 -27.261186 -148.309735 25.425065 11.258124 4.246739 4.955327 -46.599013 -39.524238 5.969429 15.222962 54.781049 6.900082 -15.968575 -70.592271 6.678000 -15.054700 -47.645800 -28.588899 -16.433104 16.466808 5.950999 31.592251 -67.624922 -7.633023 -14.414754 35.212825 -9.361064 -23.721951 -49.504895 -0.349700 -3.799500 10.513400 -11.781389 -5.162921 -30.115873 -19.308123 -8.390893 20.064964 9.383029 -7.009035 10.841713 -14.689976 -9.155308 -12.717902 25.656755 -20.722959 47.603211 1.665700 -5.254800 8.568400 28.161999 -1.653360 0.028574 -63.839600 11.884049 24.128126 48.266612 -46.299107 -14.528806 0.214719 1.305825 -10.976576 25.903370 -15.407906 -7.877300 -7.125000 0.000000 0.000000 -1.596900 11.383500 1.250800 -8.816738 4.025654 3.881077 100.453438 -33.131496 -14.148854 -52.496812 53.741300 -20.858203 0.692686 -3.238073 -8.239054 -8.630715 -55.193541 7.052700 7.125000 0.000000 0.000000 63.959500 -74.163600 -48.425000 
